<?xml version="1.0" encoding="UTF-8"?>
<svg width="861px" height="115px" viewBox="0 0 861 115" version="1.1" xmlns="http://www.w3.org/2000/svg" xmlns:xlink="http://www.w3.org/1999/xlink">
    <title>timelinez_logo_2</title>
    <g id="timelinez_logo_2" stroke="none" stroke-width="1" fill="none" fill-rule="evenodd">
        <polygon id="Path" fill="#000000" fill-rule="nonzero" points="33.8136201 22.0170213 0 22.0170213 0 2 89 2 89 22.0170213 55.1863799 22.0170213 55.1863799 114 33.8136201 114"></polygon>
        <polygon id="Path" fill="#000000" fill-rule="nonzero" points="101 2 164 2 164 21.858156 143.323077 21.858156 143.323077 93.9829787 164 93.9829787 164 114 101 114 101 93.9829787 121.676923 93.9829787 121.676923 21.858156 101 21.858156"></polygon>
        <polygon id="Path" fill="#000000" fill-rule="nonzero" points="201.712162 32.1843972 201.712162 114 181 114 181 2 211.672973 2 239.5 86.1985816 267.643243 2 298 2 298 114 277.287838 114 277.287838 32.3432624 250.093243 114 228.906757 114"></polygon>
        <polygon id="Path" fill="#000000" fill-rule="nonzero" points="317 2 394 2 394 22.0170213 338.344969 22.0170213 338.344969 46.9588652 388.940452 46.9588652 388.940452 66.4992908 338.344969 66.4992908 338.344969 93.8241135 394 93.8241135 394 114 317 114"></polygon>
        <polygon id="Path" fill="#000000" fill-rule="nonzero" points="411 2 432.3 2 432.3 93.8241135 482 93.8241135 482 114 411 114"></polygon>
        <polygon id="Path" fill="#000000" fill-rule="nonzero" points="495 2 558 2 558 21.858156 537.323077 21.858156 537.323077 93.9829787 558 93.9829787 558 114 495 114 495 93.9829787 515.676923 93.9829787 515.676923 21.858156 495 21.858156"></polygon>
        <polygon id="Path" fill="#000000" fill-rule="nonzero" points="573 2 601.075862 2 643.903448 83.1801418 643.903448 2 665 2 665 114 636.765517 114 594.096552 33.2964539 594.096552 114 573 114"></polygon>
        <polygon id="Path" fill="#000000" fill-rule="nonzero" points="685 2 762 2 762 22.0170213 706.344969 22.0170213 706.344969 46.9588652 756.940452 46.9588652 756.940452 66.4992908 706.344969 66.4992908 706.344969 93.8241135 762 93.8241135 762 114 685 114"></polygon>
        <path d="M818.57885,115 C806.488559,115 796.76376,112.303448 789.404453,106.910345 C782.045145,101.517241 777.576994,93.8505747 776,83.9103448 L776,78.3586207 L797.131725,78.3586207 C797.65739,83.7517241 799.865182,87.9287356 803.755102,90.8896552 C807.645022,93.8505747 812.954236,95.3310345 819.682746,95.3310345 C825.990724,95.3310345 830.853123,94.062069 834.269944,91.5241379 C837.686766,88.9862069 839.395176,85.3908046 839.395176,80.737931 C839.395176,76.8252874 838.133581,73.7586207 835.61039,71.537931 C833.087199,69.3172414 829.092146,67.6781609 823.625232,66.6206897 L809.747681,63.9241379 C799.654917,62.1264368 792.006494,58.6367816 786.802412,53.4551724 C781.59833,48.2735632 778.996289,41.5586207 778.996289,33.3103448 C778.996289,28.2344828 779.942486,23.6609195 781.834879,19.5896552 C783.727273,15.5183908 786.408163,12.0287356 789.877551,9.12068966 C793.346939,6.21264368 797.552257,3.96551724 802.493506,2.37931034 C807.434756,0.793103448 812.954236,0 819.051948,0 C829.880643,0 838.764378,2.37931034 845.703154,7.13793103 C852.641929,11.8965517 856.952381,18.5057471 858.634508,26.9655172 L858.634508,32.5172414 L838.133581,32.5172414 C837.607916,28.1816092 835.715523,24.8770115 832.456401,22.6034483 C829.197279,20.3298851 824.623995,19.1931034 818.736549,19.1931034 C812.954236,19.1931034 808.459802,20.3298851 805.253247,22.6034483 C802.046691,24.8770115 800.443414,28.0229885 800.443414,32.0413793 C800.443414,35.3195402 801.652443,37.883908 804.070501,39.7344828 C806.488559,41.5850575 810.431045,43.0390805 815.897959,44.0965517 L829.302412,46.7931034 C850.434137,50.7057471 861,61.5448276 861,79.3103448 C861,84.8091954 860.02752,89.7528736 858.08256,94.1413793 C856.1376,98.5298851 853.325294,102.283908 849.64564,105.403448 C845.965986,108.522989 841.524119,110.902299 836.320037,112.541379 C831.115955,114.18046 825.202226,115 818.57885,115 Z" id="Path" fill="#00A3D7" fill-rule="nonzero" transform="translate(818.5, 57.5) scale(-1, 1) translate(-818.5, -57.5)"></path>
    </g>
</svg>