<?xml version="1.0" encoding="UTF-8"?>
<svg width="861px" height="115px" viewBox="0 0 861 115" version="1.1" xmlns="http://www.w3.org/2000/svg" xmlns:xlink="http://www.w3.org/1999/xlink">
    <title>timelinez_logo</title>
    <g id="timelinez_logo" stroke="none" stroke-width="1" fill="none" fill-rule="evenodd">
        <g id="TIMELINES" fill="#000000" fill-rule="nonzero">
            <path d="M33.8136201,22.0170213 L0,22.0170213 L0,2 L89,2 L89,22.0170213 L55.1863799,22.0170213 L55.1863799,114 L33.8136201,114 L33.8136201,22.0170213 Z M101,2 L164,2 L164,21.858156 L143.323077,21.858156 L143.323077,93.9829787 L164,93.9829787 L164,114 L101,114 L101,93.9829787 L121.676923,93.9829787 L121.676923,21.858156 L101,21.858156 L101,2 Z M201.712162,32.1843972 L201.712162,114 L181,114 L181,2 L211.672973,2 L239.5,86.1985816 L267.643243,2 L298,2 L298,114 L277.287838,114 L277.287838,32.3432624 L250.093243,114 L228.906757,114 L201.712162,32.1843972 Z M317,2 L394,2 L394,22.0170213 L338.344969,22.0170213 L338.344969,46.9588652 L388.940452,46.9588652 L388.940452,66.4992908 L338.344969,66.4992908 L338.344969,93.8241135 L394,93.8241135 L394,114 L317,114 L317,2 Z M411,2 L432.3,2 L432.3,93.8241135 L482,93.8241135 L482,114 L411,114 L411,2 Z M495,2 L558,2 L558,21.858156 L537.323077,21.858156 L537.323077,93.9829787 L558,93.9829787 L558,114 L495,114 L495,93.9829787 L515.676923,93.9829787 L515.676923,21.858156 L495,21.858156 L495,2 Z M573,2 L601.075862,2 L643.903448,83.1801418 L643.903448,2 L665,2 L665,114 L636.765517,114 L594.096552,33.2964539 L594.096552,114 L573,114 L573,2 Z M685,2 L762,2 L762,22.0170213 L706.344969,22.0170213 L706.344969,46.9588652 L756.940452,46.9588652 L756.940452,66.4992908 L706.344969,66.4992908 L706.344969,93.8241135 L762,93.8241135 L762,114 L685,114 L685,2 Z M818.42115,115 C830.511441,115 840.23624,112.303448 847.595547,106.910345 C854.954855,101.517241 859.423006,93.8505747 861,83.9103448 L861,78.3586207 L839.868275,78.3586207 C839.34261,83.7517241 837.134818,87.9287356 833.244898,90.8896552 C829.354978,93.8505747 824.045764,95.3310345 817.317254,95.3310345 C811.009276,95.3310345 806.146877,94.062069 802.730056,91.5241379 C799.313234,88.9862069 797.604824,85.3908046 797.604824,80.737931 C797.604824,76.8252874 798.866419,73.7586207 801.38961,71.537931 C803.912801,69.3172414 807.907854,67.6781609 813.374768,66.6206897 L827.252319,63.9241379 C837.345083,62.1264368 844.993506,58.6367816 850.197588,53.4551724 C855.40167,48.2735632 858.003711,41.5586207 858.003711,33.3103448 C858.003711,28.2344828 857.057514,23.6609195 855.165121,19.5896552 C853.272727,15.5183908 850.591837,12.0287356 847.122449,9.12068966 C843.653061,6.21264368 839.447743,3.96551724 834.506494,2.37931034 C829.565244,0.793103448 824.045764,0 817.948052,0 C807.119357,0 798.235622,2.37931034 791.296846,7.13793103 C784.358071,11.8965517 780.047619,18.5057471 778.365492,26.9655172 L778.365492,32.5172414 L798.866419,32.5172414 C799.392084,28.1816092 801.284477,24.8770115 804.543599,22.6034483 C807.802721,20.3298851 812.376005,19.1931034 818.263451,19.1931034 C824.045764,19.1931034 828.540198,20.3298851 831.746753,22.6034483 C834.953309,24.8770115 836.556586,28.0229885 836.556586,32.0413793 C836.556586,35.3195402 835.347557,37.883908 832.929499,39.7344828 C830.511441,41.5850575 826.568955,43.0390805 821.102041,44.0965517 L807.697588,46.7931034 C786.565863,50.7057471 776,61.5448276 776,79.3103448 C776,84.8091954 776.97248,89.7528736 778.91744,94.1413793 C780.8624,98.5298851 783.674706,102.283908 787.35436,105.403448 C791.034014,108.522989 795.475881,110.902299 800.679963,112.541379 C805.884045,114.18046 811.797774,115 818.42115,115 Z" id="Combined-Shape"></path>
        </g>
    </g>
</svg>