<?xml version="1.0" encoding="UTF-8"?>
<svg width="761px" height="161px" viewBox="0 0 761 161" version="1.1" xmlns="http://www.w3.org/2000/svg" xmlns:xlink="http://www.w3.org/1999/xlink">
    <title>timelinez_logo_3.5</title>
    <g id="timelinez_logo_3.5" stroke="none" stroke-width="1" fill="none" fill-rule="evenodd">
        <polygon id="Path" fill="#222222" fill-rule="nonzero" points="33.2698695 22.0975991 0 22.0975991 0 2.11009174 87.5688073 2.11009174 87.5688073 22.0975991 54.2989379 22.0975991 54.2989379 113.944954 33.2698695 113.944954"></polygon>
        <polygon id="Path" fill="#222222" fill-rule="nonzero" points="101.443057 34.0252294 122.068014 34.0252294 122.068014 113.944954 101.443057 113.944954"></polygon>
        <g id="events_colour" transform="translate(269, 143)" fill-rule="nonzero">
            <rect id="Rectangle" fill="#00A3D7" x="334" y="0" width="64" height="13"></rect>
            <rect id="Rectangle" fill="#77BB41" x="0" y="0" width="83" height="13"></rect>
        </g>
        <g id="timeline_days" transform="translate(0, 135)">
            <g id="Group" fill="#222222" fill-rule="nonzero">
                <rect id="Rectangle" x="0" y="0" width="5" height="21"></rect>
                <rect id="Rectangle" x="101" y="0" width="5" height="21"></rect>
                <rect id="Rectangle" x="140" y="0" width="5" height="21"></rect>
                <rect id="Rectangle" x="264" y="0" width="5" height="21"></rect>
                <rect id="Rectangle" x="352" y="0" width="5" height="21"></rect>
                <rect id="Rectangle" x="392" y="0" width="5" height="21"></rect>
                <rect id="Rectangle" x="429" y="0" width="5" height="21"></rect>
                <rect id="Rectangle" x="515" y="0" width="5" height="21"></rect>
                <rect id="Rectangle" x="598" y="0" width="5" height="21"></rect>
                <rect id="Rectangle" x="667" y="0" width="5" height="21"></rect>
            </g>
            <g id="Rectangle-2" transform="translate(0, 21)">
                <rect id="Rectangle" fill="#222222" fill-rule="nonzero" x="0" y="0" width="672" height="5"></rect>
                <rect id="Rectangle" fill="#CCCCCC" x="672" y="0" width="21" height="5"></rect>
                <rect id="Rectangle" fill="#CCCCCC" x="706" y="0" width="21" height="5"></rect>
                <rect id="Rectangle" fill="#CCCCCC" x="740" y="0" width="21" height="5"></rect>
            </g>
            <g id="Group-2" transform="translate(31, 8)" fill="#222222" fill-rule="nonzero">
                <rect id="Rectangle" x="154" y="0" width="5" height="13"></rect>
                <rect id="Rectangle" x="0" y="0" width="5" height="13"></rect>
                <rect id="Rectangle" x="199" y="0" width="5" height="13"></rect>
                <rect id="Rectangle" x="449" y="0" width="5" height="13"></rect>
            </g>
        </g>
        <polygon id="Path" fill="#222222" fill-rule="nonzero" points="101.284404 3.16513761 122.385321 3.16513761 122.385321 22.1559633 101.284404 22.1559633"></polygon>
        <path d="M140.321101,33.2288234 L159.311927,33.2288234 L159.311927,42.2202726 C162.055046,38.8550518 165.299312,36.2522639 169.044725,34.4119088 C172.790138,32.5715537 176.87844,31.6513761 181.309633,31.6513761 C186.057339,31.6513761 190.224771,32.7292984 193.811927,34.885143 C197.399083,37.0409875 200.247706,40.1170096 202.357798,44.1132092 C205.100917,40.1170096 208.529817,37.0409875 212.644495,34.885143 C216.759174,32.7292984 221.243119,31.6513761 226.09633,31.6513761 C229.894495,31.6513761 233.323394,32.3349366 236.383028,33.7020575 C239.442661,35.0691785 242.080275,36.9884059 244.295872,39.4597399 C246.511468,41.9310739 248.199541,44.9282236 249.360092,48.4511891 C250.520642,51.9741546 251.100917,55.8914818 251.100917,60.2031709 L251.100917,112.889908 L230.527523,112.889908 L230.527523,66.0397257 C230.527523,60.8867314 229.577982,56.9168225 227.678899,54.1299991 C225.779817,51.3431757 222.983945,49.949764 219.291284,49.949764 C215.176606,49.949764 211.932339,51.6586651 209.558486,55.0764674 C207.184633,58.4942698 205.997706,63.2003207 205.997706,69.1946201 L205.997706,112.889908 L185.424312,112.889908 L185.424312,66.0397257 C185.424312,60.8867314 184.474771,56.9168225 182.575688,54.1299991 C180.676606,51.3431757 177.880734,49.949764 174.188073,49.949764 C170.073394,49.949764 166.829128,51.6586651 164.455275,55.0764674 C162.081422,58.4942698 160.894495,63.2003207 160.894495,69.1946201 L160.894495,112.889908 L140.321101,112.889908 L140.321101,33.2288234 Z" id="Path" fill="#222222" fill-rule="nonzero"></path>
        <path d="M263.761468,73.2463084 C263.761468,67.0017766 264.712312,61.3393622 266.613999,56.2590651 C268.515687,51.178768 271.183332,46.8128877 274.616935,43.1614242 C278.050537,39.5099607 282.170861,36.6787535 286.977904,34.6678025 C291.784948,32.6568516 297.093826,31.6513761 302.904538,31.6513761 C308.292653,31.6513761 313.231758,32.5245522 317.721854,34.2709043 C322.21195,36.0172564 326.120974,38.5044852 329.448928,41.7325907 C332.776881,44.9606961 335.418114,48.8767584 337.372626,53.4807776 C339.327138,58.0847969 340.462869,63.2444736 340.779817,68.9598078 L340.621343,69.1185671 L340.779817,69.1185671 L340.304395,80.0729576 L284.521558,80.0729576 C285.6837,85.3649337 287.902336,89.4397554 291.177464,92.2974225 C294.452593,95.1550896 298.572916,96.5839231 303.538434,96.5839231 C310.405639,96.5839231 315.476806,93.8320955 318.751935,88.3284404 L337.451863,88.3284404 L337.451863,93.8850153 C334.599332,100.552905 330.135648,105.739042 324.060813,109.443425 C317.985977,113.147808 310.933886,115 302.904538,115 C297.093826,115 291.784948,113.994525 286.977904,111.983574 C282.170861,109.972623 278.050537,107.114956 274.616935,103.410572 C271.183332,99.706189 268.515687,95.287389 266.613999,90.1541721 C264.712312,85.0209553 263.761468,79.3850007 263.761468,73.2463084 Z M302.58759,48.9561381 C298.04467,48.9561381 294.214882,50.2262123 291.098227,52.7663609 C287.981573,55.3065094 285.842174,58.9579729 284.680032,63.7207514 L320.178201,63.7207514 C319.016058,58.9579729 316.929484,55.3065094 313.918479,52.7663609 C310.907473,50.2262123 307.130511,48.9561381 302.58759,48.9561381 Z" id="Shape" fill="#77BB41" fill-rule="nonzero"></path>
        <polygon id="Path" fill="#222222" fill-rule="nonzero" points="352.385321 0 373.486239 0 373.486239 113.944954 352.385321 113.944954"></polygon>
        <path d="M392.635718,34.0252294 L413.260675,34.0252294 L413.260675,113.944954 L392.635718,113.944954 L392.635718,34.0252294 Z M392.477064,3.16513761 L413.577982,3.16513761 L413.577982,22.1559633 L392.477064,22.1559633 L392.477064,3.16513761 Z" id="Shape" fill="#222222" fill-rule="nonzero"></path>
        <path d="M429.40367,33.2288234 L448.477425,33.2288234 L448.477425,43.3244856 C451.444453,39.5386123 455.100256,36.6466257 459.444834,34.6485259 C463.789411,32.6504261 468.55785,31.6513761 473.75015,31.6513761 C482.757201,31.6513761 489.750911,34.6222351 494.731281,40.563953 C499.71165,46.5056709 502.201835,54.8398504 502.201835,65.5664915 L502.201835,112.889908 L481.5386,112.889908 L481.5386,66.6707046 C481.5386,61.4125471 480.240525,57.3111843 477.644375,54.3666162 C475.048225,51.422048 471.418914,49.949764 466.75644,49.949764 C461.776071,49.949764 457.749389,51.6586651 454.676395,55.0764674 C451.603401,58.4942698 450.066904,62.9374128 450.066904,68.4058965 L450.066904,112.889908 L429.40367,112.889908 L429.40367,33.2288234 Z" id="Path" fill="#222222" fill-rule="nonzero"></path>
        <path d="M514.862385,73.2463084 C514.862385,67.0017766 515.813229,61.3393622 517.714917,56.2590651 C519.616604,51.178768 522.28425,46.8128877 525.717852,43.1614242 C529.151455,39.5099607 533.271778,36.6787535 538.078822,34.6678025 C542.885865,32.6568516 548.194743,31.6513761 554.005456,31.6513761 C559.39357,31.6513761 564.332676,32.5245522 568.822772,34.2709043 C573.312867,36.0172564 577.221892,38.5044852 580.549845,41.7325907 C583.877799,44.9606961 586.519031,48.8767584 588.473544,53.4807776 C590.428056,58.0847969 591.563786,63.2444736 591.880734,68.9598078 L591.72226,69.1185671 L591.880734,69.1185671 L591.405312,80.0729576 L535.622475,80.0729576 C536.784618,85.3649337 539.003253,89.4397554 542.278382,92.2974225 C545.553511,95.1550896 549.673834,96.5839231 554.639351,96.5839231 C561.506557,96.5839231 566.577724,93.8320955 569.852852,88.3284404 L588.552781,88.3284404 L588.552781,93.8850153 C585.700249,100.552905 581.236566,105.739042 575.16173,109.443425 C569.086895,113.147808 562.034803,115 554.005456,115 C548.194743,115 542.885865,113.994525 538.078822,111.983574 C533.271778,109.972623 529.151455,107.114956 525.717852,103.410572 C522.28425,99.706189 519.616604,95.287389 517.714917,90.1541721 C515.813229,85.0209553 514.862385,79.3850007 514.862385,73.2463084 Z M553.688508,48.9561381 C549.145587,48.9561381 545.3158,50.2262123 542.199145,52.7663609 C539.08249,55.3065094 536.943092,58.9579729 535.780949,63.7207514 L571.279118,63.7207514 C570.116976,58.9579729 568.030402,55.3065094 565.019396,52.7663609 C562.008391,50.2262123 558.231428,48.9561381 553.688508,48.9561381 Z" id="Shape" fill="#222222" fill-rule="nonzero"></path>
        <polygon id="Path" fill="#00A3D7" fill-rule="nonzero" points="603.84906 33.7614679 670.173731 33.7614679 670.173731 54.085203 627.637718 95.6853484 672.06422 95.6853484 672.06422 113.944954 602.431193 113.944954 602.431193 93.621219 644.967205 52.0210737 603.84906 52.0210737"></polygon>
    </g>
</svg>