<?xml version="1.0" encoding="UTF-8"?>
<svg width="761px" height="174px" viewBox="0 0 761 174" version="1.1" xmlns="http://www.w3.org/2000/svg" xmlns:xlink="http://www.w3.org/1999/xlink">
    <title>timelinez_logo_6.0</title>
    <g id="timelinez_logo_6.0" stroke="none" stroke-width="1" fill="none" fill-rule="evenodd">
        <polygon id="Path" fill="#77BB41" fill-rule="nonzero" points="33.2698695 22.0975991 0 22.0975991 0 2.11009174 87.5688073 2.11009174 87.5688073 22.0975991 54.2989379 22.0975991 54.2989379 113.944954 33.2698695 113.944954"></polygon>
        <polygon id="Path" fill="#77BB41" fill-rule="nonzero" points="101.443057 34.0252294 122.068014 34.0252294 122.068014 113.944954 101.443057 113.944954"></polygon>
        <g id="events_colour" transform="translate(0, 161)" fill-rule="nonzero">
            <rect id="Rectangle" fill="#00A3D7" x="598" y="0" width="74" height="13"></rect>
            <rect id="Rectangle" fill="#77BB41" x="0" y="0" width="357" height="13"></rect>
        </g>
        <g id="timeline_days" transform="translate(0, 135)" fill-rule="nonzero">
            <g id="Group" fill="#222222">
                <rect id="Rectangle" x="0" y="0" width="5" height="21"></rect>
                <rect id="Rectangle" x="101" y="0" width="5" height="21"></rect>
                <rect id="Rectangle" x="140" y="0" width="5" height="21"></rect>
                <rect id="Rectangle" x="264" y="0" width="5" height="21"></rect>
                <rect id="Rectangle" x="352" y="0" width="5" height="21"></rect>
                <rect id="Rectangle" x="598" y="0" width="5" height="21"></rect>
                <rect id="Rectangle" x="667" y="0" width="5" height="21"></rect>
            </g>
            <g id="Rectangle-2" transform="translate(0, 21)">
                <rect id="Rectangle" fill="#222222" x="0" y="0" width="357" height="5"></rect>
                <rect id="Rectangle" fill="#222222" transform="translate(635, 2.5) scale(-1, 1) translate(-635, -2.5)" x="598" y="0" width="74" height="5"></rect>
                <rect id="Rectangle" fill="#AAAAAA" x="672" y="0" width="21" height="5"></rect>
                <rect id="Rectangle" fill="#AAAAAA" x="357" y="0" width="21" height="5"></rect>
                <rect id="Rectangle" fill="#AAAAAA" x="706" y="0" width="21" height="5"></rect>
                <rect id="Rectangle" fill="#AAAAAA" x="391" y="0" width="21" height="5"></rect>
                <rect id="Rectangle" fill="#AAAAAA" x="740" y="0" width="21" height="5"></rect>
                <rect id="Rectangle" fill="#AAAAAA" x="425" y="0" width="21" height="5"></rect>
                <rect id="Rectangle" fill="#AAAAAA" x="459" y="0" width="21" height="5"></rect>
                <rect id="Rectangle" fill="#AAAAAA" x="493" y="0" width="21" height="5"></rect>
                <rect id="Rectangle" fill="#AAAAAA" x="527" y="0" width="21" height="5"></rect>
                <rect id="Rectangle" fill="#AAAAAA" x="561" y="0" width="21" height="5"></rect>
            </g>
            <g id="Group-2" transform="translate(31, 8)" fill="#222222">
                <rect id="Rectangle" x="154" y="0" width="5" height="13"></rect>
                <rect id="Rectangle" x="0" y="0" width="5" height="13"></rect>
                <rect id="Rectangle" x="199" y="0" width="5" height="13"></rect>
            </g>
        </g>
        <polygon id="Path" fill="#77BB41" fill-rule="nonzero" points="101.284404 3.16513761 122.385321 3.16513761 122.385321 22.1559633 101.284404 22.1559633"></polygon>
        <path d="M140.321101,33.2288234 L159.311927,33.2288234 L159.311927,42.2202726 C162.055046,38.8550518 165.299312,36.2522639 169.044725,34.4119088 C172.790138,32.5715537 176.87844,31.6513761 181.309633,31.6513761 C186.057339,31.6513761 190.224771,32.7292984 193.811927,34.885143 C197.399083,37.0409875 200.247706,40.1170096 202.357798,44.1132092 C205.100917,40.1170096 208.529817,37.0409875 212.644495,34.885143 C216.759174,32.7292984 221.243119,31.6513761 226.09633,31.6513761 C229.894495,31.6513761 233.323394,32.3349366 236.383028,33.7020575 C239.442661,35.0691785 242.080275,36.9884059 244.295872,39.4597399 C246.511468,41.9310739 248.199541,44.9282236 249.360092,48.4511891 C250.520642,51.9741546 251.100917,55.8914818 251.100917,60.2031709 L251.100917,112.889908 L230.527523,112.889908 L230.527523,66.0397257 C230.527523,60.8867314 229.577982,56.9168225 227.678899,54.1299991 C225.779817,51.3431757 222.983945,49.949764 219.291284,49.949764 C215.176606,49.949764 211.932339,51.6586651 209.558486,55.0764674 C207.184633,58.4942698 205.997706,63.2003207 205.997706,69.1946201 L205.997706,112.889908 L185.424312,112.889908 L185.424312,66.0397257 C185.424312,60.8867314 184.474771,56.9168225 182.575688,54.1299991 C180.676606,51.3431757 177.880734,49.949764 174.188073,49.949764 C170.073394,49.949764 166.829128,51.6586651 164.455275,55.0764674 C162.081422,58.4942698 160.894495,63.2003207 160.894495,69.1946201 L160.894495,112.889908 L140.321101,112.889908 L140.321101,33.2288234 Z" id="Path" fill="#77BB41" fill-rule="nonzero"></path>
        <path d="M263.761468,73.2463084 C263.761468,67.0017766 264.712312,61.3393622 266.613999,56.2590651 C268.515687,51.178768 271.183332,46.8128877 274.616935,43.1614242 C278.050537,39.5099607 282.170861,36.6787535 286.977904,34.6678025 C291.784948,32.6568516 297.093826,31.6513761 302.904538,31.6513761 C308.292653,31.6513761 313.231758,32.5245522 317.721854,34.2709043 C322.21195,36.0172564 326.120974,38.5044852 329.448928,41.7325907 C332.776881,44.9606961 335.418114,48.8767584 337.372626,53.4807776 C339.327138,58.0847969 340.462869,63.2444736 340.779817,68.9598078 L340.621343,69.1185671 L340.779817,69.1185671 L340.304395,80.0729576 L284.521558,80.0729576 C285.6837,85.3649337 287.902336,89.4397554 291.177464,92.2974225 C294.452593,95.1550896 298.572916,96.5839231 303.538434,96.5839231 C310.405639,96.5839231 315.476806,93.8320955 318.751935,88.3284404 L337.451863,88.3284404 L337.451863,93.8850153 C334.599332,100.552905 330.135648,105.739042 324.060813,109.443425 C317.985977,113.147808 310.933886,115 302.904538,115 C297.093826,115 291.784948,113.994525 286.977904,111.983574 C282.170861,109.972623 278.050537,107.114956 274.616935,103.410572 C271.183332,99.706189 268.515687,95.287389 266.613999,90.1541721 C264.712312,85.0209553 263.761468,79.3850007 263.761468,73.2463084 Z M302.58759,48.9561381 C298.04467,48.9561381 294.214882,50.2262123 291.098227,52.7663609 C287.981573,55.3065094 285.842174,58.9579729 284.680032,63.7207514 L320.178201,63.7207514 C319.016058,58.9579729 316.929484,55.3065094 313.918479,52.7663609 C310.907473,50.2262123 307.130511,48.9561381 302.58759,48.9561381 Z" id="Shape" fill="#77BB41" fill-rule="nonzero"></path>
        <g id="Group-3" transform="translate(352.3853, 0)" fill="#AAAAAA" fill-rule="nonzero">
            <polygon id="Path" points="0 0 21.1009174 0 21.1009174 113.944954 0 113.944954"></polygon>
            <path d="M40.2503966,34.0252294 L60.8753535,34.0252294 L60.8753535,113.944954 L40.2503966,113.944954 L40.2503966,34.0252294 Z M40.0917431,3.16513761 L61.1926606,3.16513761 L61.1926606,22.1559633 L40.0917431,22.1559633 L40.0917431,3.16513761 Z" id="Shape"></path>
            <path d="M77.0183486,33.2288234 L96.0921037,33.2288234 L96.0921037,43.3244856 C99.0591322,39.5386123 102.714935,36.6466257 107.059513,34.6485259 C111.40409,32.6504261 116.172529,31.6513761 121.364829,31.6513761 C130.37188,31.6513761 137.36559,34.6222351 142.34596,40.563953 C147.326329,46.5056709 149.816514,54.8398504 149.816514,65.5664915 L149.816514,112.889908 L129.153279,112.889908 L129.153279,66.6707046 C129.153279,61.4125471 127.855204,57.3111843 125.259054,54.3666162 C122.662904,51.422048 119.033592,49.949764 114.371119,49.949764 C109.39075,49.949764 105.364068,51.6586651 102.291074,55.0764674 C99.2180802,58.4942698 97.6815833,62.9374128 97.6815833,68.4058965 L97.6815833,112.889908 L77.0183486,112.889908 L77.0183486,33.2288234 Z" id="Path"></path>
            <path d="M162.477064,73.2463084 C162.477064,67.0017766 163.427908,61.3393622 165.329596,56.2590651 C167.231283,51.178768 169.898928,46.8128877 173.332531,43.1614242 C176.766134,39.5099607 180.886457,36.6787535 185.693501,34.6678025 C190.500544,32.6568516 195.809422,31.6513761 201.620134,31.6513761 C207.008249,31.6513761 211.947355,32.5245522 216.43745,34.2709043 C220.927546,36.0172564 224.836571,38.5044852 228.164524,41.7325907 C231.492477,44.9606961 234.13371,48.8767584 236.088223,53.4807776 C238.042735,58.0847969 239.178465,63.2444736 239.495413,68.9598078 L239.336939,69.1185671 L239.495413,69.1185671 L239.019991,80.0729576 L183.237154,80.0729576 C184.399297,85.3649337 186.617932,89.4397554 189.893061,92.2974225 C193.168189,95.1550896 197.288513,96.5839231 202.25403,96.5839231 C209.121236,96.5839231 214.192403,93.8320955 217.467531,88.3284404 L236.16746,88.3284404 L236.16746,93.8850153 C233.314928,100.552905 228.851245,105.739042 222.776409,109.443425 C216.701574,113.147808 209.649482,115 201.620134,115 C195.809422,115 190.500544,113.994525 185.693501,111.983574 C180.886457,109.972623 176.766134,107.114956 173.332531,103.410572 C169.898928,99.706189 167.231283,95.287389 165.329596,90.1541721 C163.427908,85.0209553 162.477064,79.3850007 162.477064,73.2463084 Z M201.303186,48.9561381 C196.760266,48.9561381 192.930478,50.2262123 189.813824,52.7663609 C186.697169,55.3065094 184.55777,58.9579729 183.395628,63.7207514 L218.893797,63.7207514 C217.731655,58.9579729 215.645081,55.3065094 212.634075,52.7663609 C209.62307,50.2262123 205.846107,48.9561381 201.303186,48.9561381 Z" id="Shape"></path>
        </g>
        <polygon id="Path" fill="#00A3D7" fill-rule="nonzero" points="603.84906 33.7614679 670.173731 33.7614679 670.173731 54.085203 627.637718 95.6853484 672.06422 95.6853484 672.06422 113.944954 602.431193 113.944954 602.431193 93.621219 644.967205 52.0210737 603.84906 52.0210737"></polygon>
    </g>
</svg>